<?xml version="1.0" standalone="no"?>
<!DOCTYPE svg PUBLIC "-//W3C//DTD SVG 20010904//EN"
 "http://www.w3.org/TR/2001/REC-SVG-20010904/DTD/svg10.dtd">
<svg version="1.0" xmlns="http://www.w3.org/2000/svg"
 width="800.000000pt" height="800.000000pt" viewBox="0 0 800.000000 800.000000"
 preserveAspectRatio="xMidYMid meet">
<metadata>
Created by potrace 1.14, written by Peter Selinger 2001-2017
</metadata>
<g transform="translate(0.000000,800.000000) scale(0.100000,-0.100000)"
fill="#000000" stroke="none">
<path d="M3748 7995 c-1 -1 -43 -6 -93 -9 -135 -10 -372 -45 -480 -70 -5 -2
-28 -6 -50 -11 -140 -27 -497 -136 -620 -190 -16 -8 -64 -28 -105 -46 -102
-43 -287 -137 -390 -196 -130 -76 -133 -77 -144 -86 -6 -4 -42 -28 -81 -54
-69 -45 -289 -207 -311 -227 -6 -6 -35 -31 -65 -56 -154 -130 -333 -310 -459
-460 -25 -29 -50 -58 -55 -64 -27 -28 -175 -232 -240 -331 -235 -358 -407
-743 -524 -1175 -11 -41 -22 -86 -25 -100 -2 -14 -13 -68 -24 -120 -24 -111
-30 -145 -52 -305 -19 -143 -25 -256 -25 -500 1 -260 8 -387 35 -560 6 -38 13
-86 16 -105 79 -513 312 -1100 617 -1554 55 -82 212 -294 226 -306 4 -3 26
-30 51 -60 139 -168 351 -375 545 -531 477 -383 1034 -651 1625 -784 41 -9 86
-18 100 -20 14 -3 77 -13 140 -24 229 -38 334 -46 625 -46 215 0 351 6 455 20
19 3 53 7 76 9 88 10 290 47 352 65 18 5 35 10 37 10 20 -1 259 63 295 78 8 3
17 7 20 7 40 10 205 71 315 118 576 245 1062 599 1473 1073 217 250 470 630
522 785 38 112 30 243 -20 350 -31 67 -40 80 -100 141 -141 141 -360 177 -544
90 -99 -48 -157 -112 -264 -291 -232 -388 -519 -699 -882 -955 -185 -130 -325
-207 -605 -330 -88 -39 -423 -140 -495 -150 -14 -2 -36 -6 -50 -9 -14 -3 -36
-8 -50 -10 -14 -2 -41 -7 -60 -10 -143 -24 -245 -30 -465 -31 -220 0 -295 5
-460 30 -340 51 -654 156 -967 322 -111 59 -355 212 -389 245 -8 7 -32 26 -54
42 -22 17 -42 32 -45 35 -3 4 -39 35 -80 71 -145 125 -366 363 -446 483 -16
23 -39 56 -51 72 -36 47 -28 34 -110 170 -185 303 -328 688 -388 1041 -32 190
-40 297 -40 534 0 251 7 318 59 616 12 68 67 265 101 364 185 531 485 967 931
1351 16 14 65 52 109 84 44 33 82 63 85 66 3 3 10 8 15 10 6 2 48 29 95 60
292 192 707 362 1010 414 19 3 54 10 77 15 22 5 65 13 95 16 29 3 56 8 59 10
30 17 554 26 689 10 440 -49 820 -170 1190 -379 88 -50 259 -159 295 -189 5
-5 28 -22 50 -39 22 -16 49 -37 60 -47 124 -103 163 -139 245 -222 168 -170
274 -300 389 -476 70 -106 78 -120 119 -193 43 -79 79 -126 122 -161 42 -35
160 -104 160 -95 0 3 10 0 22 -6 38 -21 188 -21 262 0 251 70 402 334 335 584
-31 117 -261 490 -421 682 -167 201 -276 319 -439 471 -75 70 -293 248 -328
268 -9 5 -18 12 -21 16 -15 19 -281 189 -410 262 -253 142 -594 282 -865 353
-49 13 -117 31 -150 40 -67 17 -56 15 -255 49 -80 14 -179 28 -220 32 -41 3
-84 8 -95 11 -22 5 -581 13 -587 8z"/>
<path d="M3854 5185 c-328 -71 -559 -345 -569 -675 -5 -123 6 -186 47 -292 33
-86 86 -171 148 -236 l40 -42 0 -570 0 -570 480 0 480 0 0 574 c0 544 1 576
18 588 67 48 167 217 199 338 27 100 24 283 -6 380 -74 242 -245 414 -486 490
-87 27 -260 35 -351 15z"/>
</g>
</svg>
